<svg xmlns="http://www.w3.org/2000/svg" xmlns:xlink="http://www.w3.org/1999/xlink" width="50px" height="50px" viewBox="0 0 79.443 79.443">
  <defs>
    <linearGradient id="linear-gradient" x1="0.341" y1="0.149" x2="0.726" y2="0.937" gradientUnits="objectBoundingBox">
      <stop offset="0" stop-color="#5574f7"/>
      <stop offset="1" stop-color="#60c3ff"/>
    </linearGradient>
    <filter id="diamond" x="1" y="15.128" width="78.42" height="63.296" filterUnits="userSpaceOnUse">
      <feOffset dy="3" input="SourceAlpha"/>
      <feGaussianBlur stdDeviation="3" result="blur"/>
      <feFlood flood-opacity="0.251"/>
      <feComposite operator="in" in2="blur"/>
      <feComposite in="SourceGraphic"/>
    </filter>
    <filter id="cross" x="53.772" y="10" width="25.102" height="25.194" filterUnits="userSpaceOnUse">
      <feOffset dy="3" input="SourceAlpha"/>
      <feGaussianBlur stdDeviation="3" result="blur-2"/>
      <feFlood flood-color="#484848" flood-opacity="0.349"/>
      <feComposite operator="in" in2="blur-2"/>
      <feComposite in="SourceGraphic"/>
    </filter>
  </defs>
  <g id="Dia" transform="translate(9383 8786)">
    <ellipse id="Ellipse_241" data-name="Ellipse 241" cx="39.722" cy="39.722" rx="39.722" ry="39.722" transform="translate(-9303.557 -8706.557) rotate(180)" fill="url(#linear-gradient)"/>
    <g id="Group_12001" data-name="Group 12001" transform="translate(0.217 -3.391)">
      <g transform="matrix(1, 0, 0, 1, -9383.22, -8782.61)" filter="url(#diamond)">
        <path id="diamond-2" data-name="diamond" d="M59.314,14.71,49.722,5.116a3.781,3.781,0,0,0-2.67-1.106H13.37A3.777,3.777,0,0,0,10.7,5.116L1.108,14.71a3.771,3.771,0,0,0-.153,5.179L27.387,48.037a3.772,3.772,0,0,0,5.644,0L59.465,19.889a3.773,3.773,0,0,0-.151-5.179ZM34.4,17.227H26.018l4.192-3.491Zm-2.713-4.72,5.158-4.3,3.81,3.81L35.874,16ZM24.546,16l-4.781-3.982,3.81-3.81,5.16,4.3Zm10.366,3.117-4.7,23.513-4.7-23.513h9.4Zm1.926,0H46.1L32.206,42.28l4.632-23.165Zm.508-1.888L42,13.354l3.873,3.873ZM39.1,7.786h6.631L42.111,10.8ZM30.21,11.279,26.018,7.786H34.4Zm-11.9-.478L14.69,7.786h6.633Zm.117,2.553,4.649,3.873H14.552Zm5.158,5.761L28.214,42.28l-13.9-23.165Zm.4,19.784L5.408,19.115h6.71ZM48.3,19.115h6.712L36.431,38.9Zm.236-1.888-5.085-5.085L47.79,8.526l8.7,8.7Zm-35.914-8.7,4.345,3.62-5.087,5.085H3.788Z" transform="translate(10 17.12)" fill="#fff"/>
      </g>
      <g transform="matrix(1, 0, 0, 1, -9383.22, -8782.61)" filter="url(#cross)">
        <path id="cross-2" data-name="cross" d="M4.59,5.507c-.081.264-1.12-1.242-2.267-1.242A3.8,3.8,0,0,0,0,5.507,4.16,4.16,0,0,0,1.019,3.02,7.535,7.535,0,0,0,0,0C.022-.021,1.176,1.594,2.323,1.594S4.59,0,4.59,0a7.812,7.812,0,0,0-.878,3.02C3.712,4.4,4.671,5.243,4.59,5.507Z" transform="translate(66.41 16) rotate(41)" fill="#fff"/>
      </g>
    </g>
  </g>
</svg>
