<svg xmlns="http://www.w3.org/2000/svg" width="50px" height="50px" viewBox="0 0 1024 1024">
  <g id="Tax" transform="translate(-14556 -1681)">
    <g id="Group_348" data-name="Group 348" transform="translate(15078 -8775)">
      <rect id="Rectangle_36" data-name="Rectangle 36" width="1024" height="1024" rx="52" transform="translate(-522 10456)" fill="#fff"/>
    </g>
    <g id="Group_349" data-name="Group 349" transform="translate(14655 2041)">
      <g id="Group_12" data-name="Group 12">
        <path id="Path_1970" data-name="Path 1970" d="M179.141,60.454a72.681,72.681,0,0,0,.763,10.3H155.4V294.8a8.545,8.545,0,0,1-8.58,8.58H85.8a8.545,8.545,0,0,1-8.58-8.58V70.75H8.58A8.545,8.545,0,0,1,0,62.17V8.78A8.545,8.545,0,0,1,8.58.2H217.371A66.646,66.646,0,0,0,179.141,60.454Z" transform="translate(0 -0.009)" fill="#4e4e4e"/>
        <path id="Path_1971" data-name="Path 1971" d="M850.254,294.8c3.241,4.767,1.906,8.58-2.765,8.58H786.472c-4.767,0-11.155-3.814-14.4-8.58l-57.394-85.042L657.289,294.8c-3.241,4.767-9.629,8.58-14.4,8.58H581.876c-4.767,0-6.006-3.814-2.764-8.58l96.483-143.007L579.112,8.78C575.87,4.014,577.205.2,581.876.2h61.017c4.767,0,11.155,3.814,14.4,8.58L714.682,102.4,772.076,8.78c3.241-4.767,9.629-8.58,14.4-8.58h61.017c4.767,0,6.006,3.814,2.765,8.58L753.772,151.788Z" transform="translate(-26.912 -0.009)" fill="#4e4e4e"/>
        <path id="Path_1972" data-name="Path 1972" d="M552.284,295.211c1.811,4.767-.477,8.58-5.244,8.58H486.024c-4.767,0-10.106-3.814-11.917-8.58l-8.3-21.26a68.172,68.172,0,0,0-37.086-125.37,61.465,61.465,0,0,0-11.155.953L404.7,115.879,443.122,13.2Z" transform="translate(-18.866 -0.615)" fill="#4e4e4e"/>
        <path id="Path_1973" data-name="Path 1973" d="M304.93,303.176H243.913c-4.767,0-7.055-3.814-5.243-8.581L349.548,8.58C351.36,3.814,356.7,0,361.466,0h61.016c4.767,0,7.055,3.814,5.243,8.58L316.847,294.6C315.036,299.362,309.7,303.176,304.93,303.176Z" transform="translate(-11.097)" fill="#3974de"/>
        <circle id="Ellipse_1" data-name="Ellipse 1" cx="57.203" cy="57.203" r="57.203" transform="translate(352.656 158.929)" fill="#3974de"/>
        <circle id="Ellipse_2" data-name="Ellipse 2" cx="57.203" cy="57.203" r="57.203" transform="translate(188.579 3.242)" fill="#3974de"/>
      </g>
    </g>
  </g>
</svg>
