<svg width="142px" height="38px" viewBox="0 0 142 38" fill="none" xmlns="http://www.w3.org/2000/svg">
<path fill-rule="evenodd" clip-rule="evenodd" d="M26.7543 37.6248C26.4999 37.7004 26.2496 37.8201 25.9952 37.8333C25.4267 37.8661 24.8531 37.8466 24.2805 37.8466C22.5544 37.8466 22.5585 37.8425 21.8963 36.2977C18.0198 27.2312 14.1392 18.1637 10.2566 9.09717C9.11033 6.41341 7.95583 3.73374 6.80957 1.04794C6.69011 0.769851 6.61801 0.474382 6.47177 0.0296443C7.83636 0.0296443 9.08046 0.00408468 10.3215 0.0552039C10.511 0.063383 10.755 0.391569 10.8519 0.622627C13.0362 5.69979 15.1969 10.7851 17.3741 15.8643C19.5698 20.9967 21.7748 26.1301 23.9901 31.2512C24.1826 31.7041 24.47 32.1213 24.7151 32.5537C25.3958 34.2448 26.0735 35.9358 26.7543 37.6248Z" fill="white"/>
<path fill-rule="evenodd" clip-rule="evenodd" d="M26.7543 37.6247C26.0735 35.9358 25.3958 34.2447 24.7151 32.5537C29.2497 21.971 33.7873 11.3863 38.2992 0.79231C38.5515 0.205461 38.8502 -0.0235533 39.4949 0.0132526C40.5474 0.0715285 41.6031 0.0296108 42.8091 0.0296108C42.6793 0.402781 42.6 0.682915 42.4846 0.953847C37.2879 13.1039 32.0808 25.2529 26.8778 37.4019C26.8459 37.4796 26.7954 37.5511 26.7543 37.6247Z" fill="white"/>
<path fill-rule="evenodd" clip-rule="evenodd" d="M2.63855 0.0204426C3.29561 0.0204426 3.87338 -0.0398781 4.42951 0.0470247C4.72612 0.093032 5.13086 0.33636 5.24415 0.595023C7.77045 6.44716 10.2638 12.3146 12.7736 18.1749C15.4389 24.4033 18.1135 30.6235 20.7851 36.8457C20.9035 37.1248 20.99 37.4183 21.1352 37.8313C20.4874 37.8313 19.9354 37.9131 19.4318 37.7976C19.1434 37.7332 18.8376 37.3896 18.7057 37.0962C17.4977 34.4073 16.3205 31.7042 15.1444 29.003C13.4049 25.0024 11.6747 20.9947 9.93629 16.992C7.52843 11.4579 5.11335 5.92369 2.70549 0.388501C2.6746 0.315912 2.67666 0.229009 2.63855 0.0204426Z" fill="white"/>
<path fill-rule="evenodd" clip-rule="evenodd" d="M0 0.159901C0.886727 -0.161128 1.32649 0.0760655 1.65502 0.863301C3.65505 5.61432 5.70245 10.3459 7.72926 15.0836C9.76018 19.8234 11.789 24.5632 13.8159 29.303C14.9642 31.9837 16.1125 34.6644 17.2587 37.3491C17.2989 37.4422 17.3041 37.5577 17.336 37.7151C16.6048 37.9482 16.1321 37.9104 15.787 37.0915C13.4163 31.4817 10.9909 25.8964 8.59951 20.2978C6.1144 14.4886 3.64887 8.67534 1.172 2.86717C0.785799 1.96543 0.391355 1.06369 0 0.159901Z" fill="white"/>
<path d="M49.4354 35.6863C48.4364 36.4572 47.4703 37.0359 46.5373 37.4213C45.6042 37.8068 44.5568 37.999 43.3972 37.999C42.3374 37.999 41.4064 37.7914 40.6051 37.3763C39.8039 36.9613 39.1849 36.3969 38.7513 35.6863C38.3178 34.9758 38.1005 34.2039 38.1005 33.3727C38.1005 32.2501 38.4589 31.2942 39.1746 30.5029C39.8914 29.7115 40.875 29.1799 42.1263 28.91C42.3879 28.8486 43.0398 28.7147 44.0789 28.5041C45.1181 28.2945 46.0089 28.1013 46.7504 27.9264C47.492 27.7516 48.2963 27.5379 49.1645 27.2875C49.114 26.2058 48.8947 25.4124 48.5064 24.9063C48.1181 24.4013 47.3128 24.1487 46.0924 24.1487C45.0429 24.1487 44.253 24.2939 43.7236 24.5843C43.1943 24.8746 42.7401 25.3102 42.3611 25.8909C41.9831 26.4716 41.7154 26.855 41.5588 27.04C41.4023 27.2261 41.0665 27.3181 40.5526 27.3181C40.0881 27.3181 39.6875 27.1699 39.3497 26.8744C39.0109 26.5789 38.842 26.2007 38.842 25.7406C38.842 25.0188 39.0995 24.3174 39.6144 23.6365C40.1293 22.9556 40.9306 22.3943 42.0202 21.9537C43.1098 21.512 44.4662 21.2932 46.0913 21.2932C47.907 21.2932 49.3344 21.5059 50.3746 21.9312C51.4138 22.3575 52.147 23.0302 52.5765 23.9524C53.006 24.8746 53.2202 26.0964 53.2202 27.6177C53.2202 28.5787 53.2181 29.3956 53.213 30.0673C53.2078 30.739 53.2006 31.4854 53.1903 32.3053C53.1903 33.0772 53.319 33.8808 53.5765 34.7161C53.834 35.5524 53.9627 36.0912 53.9627 36.3315C53.9627 36.7517 53.764 37.1351 53.3644 37.4806C52.9648 37.8262 52.5147 37.999 52.0101 37.999C51.5857 37.999 51.1676 37.8017 50.7536 37.406C50.3386 37.0114 49.8998 36.4368 49.4354 35.6863ZM49.1635 29.7514C48.5579 29.9722 47.6784 30.2043 46.5228 30.4507C45.3673 30.6961 44.5681 30.876 44.1242 30.9916C43.6804 31.1061 43.2571 31.332 42.8534 31.6674C42.4497 32.0027 42.2478 32.4709 42.2478 33.0721C42.2478 33.6927 42.4847 34.2213 42.9584 34.6568C43.4322 35.0934 44.0532 35.3111 44.8204 35.3111C45.6371 35.3111 46.391 35.1332 47.0831 34.7785C47.7742 34.4227 48.2809 33.9646 48.6042 33.4034C48.9781 32.7828 49.1645 31.7614 49.1645 30.3382V29.7514H49.1635Z" fill="white"/>
<path d="M67.8537 35.6863C66.8547 36.4572 65.8887 37.0359 64.9556 37.4213C64.0226 37.8068 62.9752 37.999 61.8155 37.999C60.7558 37.999 59.8248 37.7914 59.0235 37.3763C58.2223 36.9613 57.6033 36.3969 57.1697 35.6863C56.7362 34.9758 56.5189 34.2039 56.5189 33.3727C56.5189 32.2501 56.8773 31.2942 57.593 30.5029C58.3098 29.7115 59.2934 29.1799 60.5447 28.91C60.8062 28.8486 61.4582 28.7147 62.4973 28.5041C63.5365 28.2945 64.4273 28.1013 65.1688 27.9264C65.9103 27.7516 66.7147 27.5379 67.5829 27.2875C67.5324 26.2058 67.313 25.4124 66.9248 24.9063C66.5365 24.4013 65.7311 24.1487 64.5107 24.1487C63.4613 24.1487 62.6714 24.2939 62.142 24.5843C61.6126 24.8746 61.1585 25.3102 60.7795 25.8909C60.4015 26.4716 60.1337 26.855 59.9772 27.04C59.8207 27.2261 59.4849 27.3181 58.971 27.3181C58.5065 27.3181 58.1059 27.1699 57.7681 26.8744C57.4293 26.5789 57.2604 26.2007 57.2604 25.7406C57.2604 25.0188 57.5178 24.3174 58.0328 23.6365C58.5477 22.9556 59.349 22.3943 60.4386 21.9537C61.5282 21.512 62.8845 21.2932 64.5097 21.2932C66.3254 21.2932 67.7528 21.5059 68.793 21.9312C69.8321 22.3575 70.5654 23.0302 70.9948 23.9524C71.4243 24.8746 71.6385 26.0964 71.6385 27.6177C71.6385 28.5787 71.6365 29.3956 71.6313 30.0673C71.6262 30.739 71.6179 31.4854 71.6087 32.3053C71.6087 33.0772 71.7374 33.8808 71.9949 34.7161C72.2523 35.5524 72.3811 36.0912 72.3811 36.3315C72.3811 36.7517 72.1823 37.1351 71.7827 37.4806C71.3841 37.8262 70.9331 37.999 70.4284 37.999C70.0041 37.999 69.586 37.8017 69.172 37.406C68.7559 37.0114 68.3172 36.4368 67.8537 35.6863ZM67.5808 29.7514C66.9752 29.9722 66.0957 30.2043 64.9402 30.4507C63.7847 30.6961 62.9855 30.876 62.5416 30.9916C62.0977 31.1061 61.6744 31.332 61.2707 31.6674C60.867 32.0027 60.6652 32.4709 60.6652 33.0721C60.6652 33.6927 60.902 34.2213 61.3758 34.6568C61.8495 35.0934 62.4705 35.3111 63.2378 35.3111C64.0545 35.3111 64.8084 35.1332 65.5004 34.7785C66.1915 34.4227 66.6982 33.9646 67.0216 33.4034C67.3954 32.7828 67.5818 31.7614 67.5818 30.3382V29.7514H67.5808Z" fill="white"/>
<path d="M79.9136 32.0814V35.5064C79.9136 36.3376 79.7179 36.9622 79.3235 37.3773C78.9301 37.7924 78.4316 38 77.826 38C77.2308 38 76.7405 37.7904 76.3574 37.3692C75.9743 36.949 75.7817 36.3273 75.7817 35.5064V24.0874C75.7817 22.245 76.4522 21.3239 77.7951 21.3239C78.481 21.3239 78.9754 21.5386 79.2771 21.97C79.5799 22.4004 79.7468 23.0363 79.7766 23.8778C80.2699 23.0363 80.7777 22.4004 81.2978 21.97C81.8179 21.5386 82.511 21.3239 83.3792 21.3239C84.2474 21.3239 85.0888 21.5386 85.9065 21.97C86.7242 22.4004 87.132 22.9709 87.132 23.6825C87.132 24.1835 86.958 24.5975 86.6099 24.9216C86.2618 25.2478 85.8859 25.4113 85.4822 25.4113C85.3308 25.4113 84.9641 25.3183 84.3854 25.1333C83.8055 24.9482 83.2927 24.8562 82.8488 24.8562C82.2442 24.8562 81.7499 25.0136 81.3668 25.3296C80.9826 25.6455 80.686 26.1137 80.4739 26.7343C80.2617 27.3549 80.1155 28.0931 80.0351 28.9498C79.9538 29.8045 79.9136 30.8494 79.9136 32.0814Z" fill="white"/>
<path d="M89.9869 21.6848H90.44V19.2208C90.44 18.5604 90.4575 18.042 90.4936 17.6658C90.5286 17.2895 90.6275 16.9665 90.7881 16.6965C90.9488 16.4164 91.1816 16.1884 91.4843 16.0126C91.7871 15.8377 92.1249 15.7498 92.4977 15.7498C93.023 15.7498 93.4978 15.9451 93.921 16.3356C94.2032 16.5964 94.3824 16.9133 94.4576 17.2895C94.5328 17.6658 94.5709 18.1995 94.5709 18.8896V21.6837H96.0848C96.6688 21.6837 97.1157 21.8218 97.4237 22.0968C97.7316 22.3718 97.885 22.7245 97.885 23.155C97.885 23.706 97.6657 24.0925 97.227 24.3123C96.7872 24.5331 96.16 24.6425 95.3423 24.6425H94.5709V32.1847C94.5709 32.8257 94.5935 33.3185 94.6389 33.664C94.6842 34.0096 94.8047 34.2897 95.0024 34.5055C95.1981 34.7212 95.5194 34.8275 95.9633 34.8275C96.2053 34.8275 96.5338 34.7856 96.9468 34.6997C97.3608 34.6149 97.6842 34.5719 97.9149 34.5719C98.2476 34.5719 98.5483 34.7048 98.8161 34.9707C99.0828 35.2365 99.2177 35.5647 99.2177 35.9552C99.2177 36.6157 98.8531 37.1228 98.1271 37.4724C97.401 37.8221 96.3567 37.9979 94.9942 37.9979C93.7027 37.9979 92.7243 37.7822 92.058 37.3518C91.3917 36.9214 90.956 36.3253 90.749 35.5647C90.542 34.803 90.438 33.7867 90.438 32.5149V24.6425H89.8932C89.2979 24.6425 88.8437 24.5025 88.5317 24.2223C88.2196 23.9422 88.0631 23.5864 88.0631 23.155C88.0631 22.7245 88.2268 22.3718 88.5554 22.0968C88.8839 21.8218 89.3618 21.6848 89.9869 21.6848Z" fill="white"/>
<path d="M111.181 35.6863C110.182 36.4572 109.216 37.0359 108.284 37.4213C107.351 37.8068 106.302 37.999 105.143 37.999C104.084 37.999 103.152 37.7914 102.35 37.3763C101.548 36.9613 100.929 36.3969 100.497 35.6863C100.062 34.9758 99.8449 34.2039 99.8449 33.3727C99.8449 32.2501 100.203 31.2942 100.919 30.5029C101.636 29.7115 102.619 29.1799 103.871 28.91C104.133 28.8486 104.784 28.7147 105.823 28.5041C106.863 28.2945 107.752 28.1013 108.495 27.9264C109.237 27.7516 110.041 27.5379 110.909 27.2875C110.858 26.2058 110.639 25.4124 110.251 24.9063C109.862 24.4013 109.057 24.1487 107.837 24.1487C106.786 24.1487 105.997 24.2939 105.467 24.5843C104.938 24.8746 104.483 25.3102 104.106 25.8909C103.728 26.4716 103.46 26.855 103.303 27.04C103.148 27.2261 102.812 27.3181 102.297 27.3181C101.833 27.3181 101.432 27.1699 101.094 26.8744C100.756 26.5789 100.587 26.2007 100.587 25.7406C100.587 25.0188 100.845 24.3174 101.359 23.6365C101.873 22.9556 102.675 22.3943 103.766 21.9537C104.855 21.512 106.212 21.2932 107.837 21.2932C109.652 21.2932 111.079 21.5059 112.119 21.9312C113.158 22.3575 113.891 23.0302 114.321 23.9524C114.75 24.8746 114.964 26.0964 114.964 27.6177C114.964 28.5787 114.962 29.3956 114.956 30.0673C114.951 30.739 114.943 31.4854 114.934 32.3053C114.934 33.0772 115.062 33.8808 115.32 34.7161C115.577 35.5524 115.706 36.0912 115.706 36.3315C115.706 36.7517 115.507 37.1351 115.109 37.4806C114.709 37.8262 114.258 37.999 113.754 37.999C113.331 37.999 112.912 37.8017 112.498 37.406C112.083 37.0114 111.645 36.4368 111.181 35.6863ZM110.909 29.7514C110.303 29.9722 109.424 30.2043 108.268 30.4507C107.114 30.6961 106.314 30.876 105.87 30.9916C105.426 31.1061 105.002 31.332 104.6 31.6674C104.195 32.0027 103.994 32.4709 103.994 33.0721C103.994 33.6927 104.23 34.2213 104.704 34.6568C105.179 35.0934 105.799 35.3111 106.567 35.3111C107.384 35.3111 108.138 35.1332 108.829 34.7785C109.52 34.4237 110.026 33.9646 110.35 33.4034C110.723 32.7828 110.91 31.7614 110.91 30.3382V29.7514H110.909Z" fill="white"/>
<path d="M122.901 23.5926V24.0874C123.627 23.1356 124.422 22.4383 125.284 21.9915C126.147 21.5458 127.138 21.3239 128.257 21.3239C129.348 21.3239 130.321 21.558 131.179 22.0294C132.037 22.4997 132.676 23.1663 133.101 24.0271C133.373 24.5281 133.55 25.0699 133.63 25.6496C133.71 26.2303 133.752 26.9716 133.752 27.8733V35.5054C133.752 36.3274 133.562 36.948 133.183 37.3682C132.805 37.7894 132.314 37.999 131.708 37.999C131.093 37.999 130.593 37.7833 130.21 37.3529C129.826 36.9224 129.634 36.307 129.634 35.5044V28.6687C129.634 27.3171 129.445 26.2825 129.067 25.5668C128.689 24.8501 127.934 24.4923 126.804 24.4923C126.068 24.4923 125.396 24.7101 124.792 25.1456C124.186 25.5821 123.742 26.1802 123.459 26.9409C123.258 27.5523 123.157 28.6943 123.157 30.3669V35.5044C123.157 36.3356 122.963 36.9603 122.574 37.3754C122.186 37.7904 121.685 37.998 121.069 37.998C120.473 37.998 119.983 37.7823 119.601 37.3518C119.217 36.9214 119.025 36.3059 119.025 35.5034V23.6529C119.025 22.8718 119.196 22.288 119.54 21.9026C119.882 21.5171 120.352 21.3249 120.947 21.3249C121.311 21.3249 121.638 21.4098 121.931 21.5795C122.223 21.7502 122.458 22.0058 122.634 22.3463C122.812 22.6857 122.901 23.1008 122.901 23.5926Z" fill="white"/>
<path d="M139.957 19.4161C139.381 19.4161 138.891 19.2403 138.481 18.8896C138.073 18.5389 137.868 18.0431 137.868 17.402C137.868 16.8223 138.077 16.3428 138.495 15.9676C138.913 15.5924 139.401 15.4043 139.956 15.4043C140.491 15.4043 140.964 15.575 141.378 15.9155C141.792 16.2559 142 16.7508 142 17.402C142 18.0328 141.798 18.5267 141.394 18.8814C140.991 19.2382 140.512 19.4161 139.957 19.4161ZM142 23.6529V35.5064C142 36.3284 141.803 36.949 141.41 37.3692C141.016 37.7904 140.517 38 139.911 38C139.306 38 138.815 37.7843 138.436 37.3539C138.057 36.9234 137.868 36.308 137.868 35.5054V23.7725C137.868 22.9618 138.058 22.3504 138.436 21.9404C138.814 21.5294 139.306 21.3239 139.911 21.3239C140.517 21.3239 141.016 21.5284 141.41 21.9404C141.803 22.3504 142 22.9219 142 23.6529Z" fill="white"/>
</svg>
