<svg xmlns="http://www.w3.org/2000/svg" width="153" height="34" viewBox="0 0 223.759 49.656">
  <g id="zeonlabs_logo" transform="translate(7.549 205)">
    <g id="Group_18" data-name="Group 18" transform="translate(-7.549 -205)">
      <path id="Path_985" data-name="Path 985" d="M44.547,180.581v7.613H20.46v-6l10.425-11.628H20.83v-7.613H44.039v6L33.613,180.581Zm28.978-5.029q0,.231-.132,2.445H55.851a4.246,4.246,0,0,0,1.848,2.192,6.275,6.275,0,0,0,3.231.761,8.156,8.156,0,0,0,2.791-.416A9.793,9.793,0,0,0,66.19,179.1l5.445,5.491q-3.7,4.061-11.029,4.061a18.138,18.138,0,0,1-8.029-1.684,12.751,12.751,0,0,1-5.353-4.684,13.05,13.05,0,0,1-.022-13.5,12.773,12.773,0,0,1,5.122-4.637,16.87,16.87,0,0,1,14.3-.132,12,12,0,0,1,5.029,4.476,12.933,12.933,0,0,1,1.867,7.052Zm-13.8-5.952a4.062,4.062,0,0,0-2.676.876,4.162,4.162,0,0,0-1.384,2.492h8.121A4.24,4.24,0,0,0,62.4,170.5a4,4,0,0,0-2.676-.9Zm73-7.107a10.183,10.183,0,0,1,7.5,2.815q2.837,2.815,2.837,8.491v14.4H132.636V175.6q0-4.338-3.092-4.338a3.612,3.612,0,0,0-2.837,1.223,5.706,5.706,0,0,0-1.085,3.853v11.857H115.2v-25.24h9.92v2.492a9.625,9.625,0,0,1,3.414-2.214,11.7,11.7,0,0,1,4.2-.739Zm14.073-8.537h10.426v34.238H146.8Zm25.564,8.537q6.645,0,10.151,2.976t3.506,9.16v13.565h-9.69v-3.322q-1.8,3.784-7.153,3.784a11.414,11.414,0,0,1-5.1-1.039,7.312,7.312,0,0,1-4.268-6.806,6.42,6.42,0,0,1,2.861-5.675q2.861-1.939,8.674-1.939h4.2q-.508-2.953-4.751-2.953a11.906,11.906,0,0,0-3.46.528,9.725,9.725,0,0,0-3,1.452l-3.322-6.876a18.343,18.343,0,0,1,5.236-2.1,25.307,25.307,0,0,1,6.114-.76Zm-.046,19.888a3.431,3.431,0,0,0,1.98-.6,3.469,3.469,0,0,0,1.292-1.8v-1.754H173q-3.184,0-3.184,2.122a1.838,1.838,0,0,0,.669,1.452,2.7,2.7,0,0,0,1.828.579ZM206.6,162.493a12.128,12.128,0,0,1,6.114,1.592,11.52,11.52,0,0,1,4.43,4.569,15.393,15.393,0,0,1,0,13.82,11.481,11.481,0,0,1-4.43,4.591,12.129,12.129,0,0,1-6.114,1.592,8.8,8.8,0,0,1-6.922-2.538v2.076h-9.92V153.956h10.425v10.705a8.8,8.8,0,0,1,6.416-2.17Zm-2.492,18.047a3.752,3.752,0,0,0,2.953-1.32,5.379,5.379,0,0,0,1.153-3.669,5.289,5.289,0,0,0-1.153-3.645,4.021,4.021,0,0,0-5.907,0A5.289,5.289,0,0,0,200,175.551a5.379,5.379,0,0,0,1.153,3.669A3.752,3.752,0,0,0,204.108,180.54Zm27.039,8.121a29.474,29.474,0,0,1-6.367-.693,18.245,18.245,0,0,1-5.075-1.8l2.861-6.876a15.017,15.017,0,0,0,4.153,1.661,19.186,19.186,0,0,0,4.66.6,7.258,7.258,0,0,0,2.515-.3.972.972,0,0,0,.715-.9q0-.6-.9-.83a24.154,24.154,0,0,0-2.93-.462,38.632,38.632,0,0,1-5.26-.946,8.249,8.249,0,0,1-3.807-2.243,6.485,6.485,0,0,1-1.638-4.751,7.047,7.047,0,0,1,1.477-4.384,9.95,9.95,0,0,1,4.406-3.092,19.212,19.212,0,0,1,7.037-1.153,29.477,29.477,0,0,1,5.606.528,17.077,17.077,0,0,1,4.683,1.551l-2.861,6.876a14.76,14.76,0,0,0-7.29-1.848q-3.414,0-3.414,1.2,0,.6.924.854a21.355,21.355,0,0,0,2.9.484,35.37,35.37,0,0,1,5.238.969,8.438,8.438,0,0,1,3.784,2.261,6.485,6.485,0,0,1,1.638,4.751,6.915,6.915,0,0,1-1.477,4.292,9.942,9.942,0,0,1-4.43,3.092,19.691,19.691,0,0,1-7.15,1.155Z" transform="translate(-20.46 -141.43)" fill="#ffffff"/>
      <g id="Group_17" data-name="Group 17" transform="translate(57.237 0)">
        <circle id="Ellipse_179" data-name="Ellipse 179" cx="15.927" cy="15.927" r="15.927" transform="translate(0 17.801)" fill="#ffffff"/>
        <circle id="Ellipse_180" data-name="Ellipse 180" cx="8.901" cy="8.901" r="8.901" transform="translate(23.114)" fill="#ffffff"/>
      </g>
    </g>
  </g>
</svg>
